<svg xmlns="http://www.w3.org/2000/svg" width="24.456" height="22.275" viewBox="0 0 24.456 22.275"><defs><style>.a{fill:#2abdc4;}.b,.c{fill:none;stroke:#2abdc4;stroke-linecap:round;stroke-linejoin:round;stroke-miterlimit:10;}.b{stroke-width:0.841px;}.c{stroke-width:1.008px;}</style></defs><g transform="translate(1.548 -3.339)"><path class="a" d="M11.234,27.459h-12.4a.384.384,0,0,1-.384-.384v-15.6a.384.384,0,0,1,.384-.384.384.384,0,0,1,.384.384V26.691H11.234a.384.384,0,1,1,0,.768Z" transform="translate(0 -5.856)"/><path class="a" d="M23.165,21.6H21.753a.384.384,0,0,1,0-.768h1.028V4.107H-.316A.384.384,0,0,1-.7,3.723a.384.384,0,0,1,.384-.384H23.165a.384.384,0,0,1,.384.384v17.5A.384.384,0,0,1,23.165,21.6Z" transform="translate(-0.641)"/><path class="a" d="M18.469,25.165H6.785a.321.321,0,0,1-.321-.321l-.01-14.306a.321.321,0,0,1,.321-.321H26.96a.321.321,0,0,1,.321.321V24.844a.319.319,0,0,1-.1.228.3.3,0,0,1-.229.093L25.9,25.153a.321.321,0,0,1-.317-.324.309.309,0,0,1,.324-.317l.728.008V10.858H7.1l.01,13.665H18.469a.321.321,0,1,1,0,.641Z" transform="translate(-6.045 -5.196)"/><path class="a" d="M28.01,21.472H16.838a.381.381,0,1,1,0-.762H28.01a.381.381,0,1,1,0,.762Z" transform="translate(-13.602 -13.123)"/><path class="a" d="M24.709,34.447H16.838a.381.381,0,1,1,0-.762h7.871a.381.381,0,1,1,0,.762Z" transform="translate(-13.602 -22.924)"/><path class="a" d="M24.709,54.3H16.838a.381.381,0,1,1,0-.762h7.871a.381.381,0,1,1,0,.762Z" transform="translate(-13.602 -37.924)"/><path class="a" d="M48.875,72.941a.38.38,0,0,1-.31-.159l-1.233-1.72-2.283.289a.375.375,0,0,1-.365-.168.38.38,0,0,1-.011-.4l2.49-4.268a.381.381,0,1,1,.658.384l-2.1,3.6,1.743-.22a.377.377,0,0,1,.357.156l1.016,1.418,1.705-3.026a.381.381,0,1,1,.664.373l-2,3.547a.379.379,0,0,1-.311.193Z" transform="translate(-34.878 -47.58)"/><path class="a" d="M72.017,73.051a.379.379,0,0,1-.3-.148L68.7,69.008a.381.381,0,1,1,.6-.466l2.538,3.281.439-1.695a.382.382,0,0,1,.278-.274l1.7-.419-2.145-2.684a.381.381,0,1,1,.6-.476l2.517,3.149a.381.381,0,0,1-.206.608l-2.054.507-.578,2.227a.384.384,0,0,1-.292.278A.409.409,0,0,1,72.017,73.051Z" transform="translate(-53.011 -47.437)"/><path class="a" d="M57.748,53.2a4.046,4.046,0,1,1,4.047-4.046A4.051,4.051,0,0,1,57.748,53.2Zm0-7.331a3.285,3.285,0,1,0,3.285,3.285A3.289,3.289,0,0,0,57.748,45.869Z" transform="translate(-41.737 -31.553)"/><path class="b" d="M55.1,70.024" transform="translate(-42.79 -50.376)"/><path class="c" d="M70.248,76.644" transform="translate(-54.237 -55.377)"/></g></svg>